<svg xmlns="http://www.w3.org/2000/svg" viewBox="0 0 259.38 158.02"><defs><style>.cls-1{isolation:isolate;}.cls-2{fill:#2451b5;}.cls-3{fill:#6d7d99;}.cls-4{fill:#ed0606;}.cls-5{fill:#ffd522;}.cls-6,.cls-7{fill:#eb9ccf;}.cls-7{opacity:0.45;mix-blend-mode:multiply;}.cls-8{font-size:17.8px;fill:#fff;font-family:MarkerFelt-Wide, Marker Felt;}.cls-9{letter-spacing:-0.18em;}.cls-10{letter-spacing:0em;}.cls-11{letter-spacing:0.03em;}</style></defs><title>electricity</title><g class="cls-1"><g id="Calque_2" data-name="Calque 2"><g id="Calque_1-2" data-name="Calque 1"><g id="Calque_5" data-name="Calque 5"><rect y="65.33" width="259.38" height="18.2"/><rect class="cls-2" x="48.13" width="158.02" height="158.02" rx="10.06"/><rect class="cls-3" x="60.94" y="12.82" width="132.39" height="132.39" rx="3.44"/><rect x="67.25" y="81.49" width="11.98" height="20.9" rx="1.73"/><rect x="102.94" y="81.49" width="11.98" height="20.9" rx="1.73"/><rect x="85.59" y="81.49" width="11.98" height="20.9" rx="1.73"/><rect x="121.27" y="81.49" width="11.98" height="20.9" rx="1.73"/><rect x="139.83" y="81.49" width="11.98" height="20.9" rx="1.73"/><rect x="158.17" y="81.49" width="11.98" height="20.9" rx="1.73"/><rect class="cls-4" x="175.04" y="81.49" width="11.98" height="20.9" rx="1.73"/><circle class="cls-5" cx="129.26" cy="42.19" r="19.98"/><path class="cls-6" d="M129.36,24.31c-.28.23-8,15.23-8,15.23l9.56,3-9.27,16L139.8,40.75l-9.88-4.24,5.83-11.42Z"/><path class="cls-6" d="M128.86,24.34c-.29.22-8,15.23-8,15.23l9.57,3-8.94,16,17.84-17.75-9.88-4.25,5.84-11.41Z"/><path class="cls-6" d="M133.13,25.29a39.94,39.94,0,0,1-6.29,8.84c-.35.35-2.65,2.43-3,1.72-.16-.32.44-1.41.56-1.71.32-.75.65-1.51,1-2.24,1.18-2.37,2.35-4.79,3.64-7.06,1.38-.21,3,.47,4.15.41Z"/><path class="cls-6" d="M130.7,25.08a14.68,14.68,0,0,0-1.36,2.39c-.66,1.18-1.4,2.3-2.06,3.48-.5.88-1,1.72-1.59,2.56A5.07,5.07,0,0,1,124.43,35l0-.05c.78-2.06,1.78-4,2.72-6a20.2,20.2,0,0,1,2.21-4.07c.48.06,1.16.22,1.55.22Z"/><path class="cls-6" d="M130.8,42.51c-1,1.74-2,3.54-2.87,5.33-.4.78-.83,1.54-1.24,2.31a7.47,7.47,0,0,0-1.16,2.72c.56.13,1.27-1,1.62-1.33.67-.69,1.34-1.4,1.95-2.15,1-1.25,2.17-2.38,3.21-3.59a17.56,17.56,0,0,0,2.27-2.6c.7-1.3-.77-.85-1.55-.77a12.12,12.12,0,0,1-2.13.15Z"/><path class="cls-6" d="M130.82,42.75c-.11-.19-.33.53-.44.78-.21.47-.44.94-.66,1.41-.38.83-.83,1.62-1.22,2.44-.66,1.36-1.3,2.76-1.88,4.1.6,0,1.52-1.83,1.85-2.34.53-.82,1.08-1.64,1.66-2.43s1.1-1.43,1.64-2.15A7.24,7.24,0,0,0,133,42.68c-.68-.17-1.63.21-2.21,0Z"/><path class="cls-6" d="M121.28,39.48c.85.64,2.31.77,3.34,1.07l3.13.91a33.79,33.79,0,0,0,5.4,1.25c.79.09,2.27.39,3-.08,1.41-.88-1.74-1.88-2.2-2.06a56.16,56.16,0,0,1-8.15-3.63c-1-.58-1.92-1.56-2.83-.24-.33.49-.47,1-.78,1.55s-.72,1-.89,1.29Z"/><path class="cls-6" d="M121.67,39.51a11.42,11.42,0,0,0,2.89.73L128,41c.92.22,1.86.43,2.76.69.6.17,2,.74,2.54.5a8.17,8.17,0,0,0-1.81-.87c-.77-.36-1.56-.71-2.33-1.05-1.24-.55-2.51-1.11-3.71-1.72-.41-.21-.82-.41-1.21-.65s-.81-.75-1.12-.72c-.5,0-1,1.61-1.32,2.07l-.15.21Z"/><path class="cls-7" d="M135,25.27c-.39.15-.67.81-.92,1.16-.6.85-1.22,1.68-1.81,2.53a31.18,31.18,0,0,1-3.43,3.9,12.68,12.68,0,0,1-4.12,3,9.28,9.28,0,0,1,2.34.31c.43.08,2,.68,2.41.41.16-.12.29-1,.38-1.21.19-.44.38-.86.58-1.28.43-.92,1-1.75,1.47-2.64.62-1.06,1.24-2.16,1.76-3.27.41-.88,1.24-2,1.29-2.94Z"/><path class="cls-7" d="M135.14,25.31c-.8.76-1.3,2.25-2,3.21-.84,1.22-1.69,2.46-2.52,3.7a28.91,28.91,0,0,1-3.31,3.57c.14.32.86.38,1.19.42.56.08.65,0,1-.53.54-.91,1-1.91,1.53-2.85,1-1.9,2.37-3.63,3.34-5.5.33-.64,1-1.48,1-2.23-.07-.08-.08,0-.11,0Z"/><text class="cls-8" transform="translate(105.73 132.95)"><tspan class="cls-9">K</tspan><tspan class="cls-10" x="6.93" y="0">-</tspan><tspan class="cls-11" x="15.65" y="0">W</tspan><tspan x="31.94" y="0">H</tspan></text></g></g></g></g></svg>