<svg xmlns="http://www.w3.org/2000/svg" viewBox="0 0 259.38 158.02"><defs><style>.cls-1{fill:#2451b5;}.cls-2{fill:#6d7d99;}.cls-3{fill:#ed0606;}.cls-4{fill:#ffd522;}.cls-5{fill:#ff3000;}.cls-6{fill:#f4900c;}.cls-7{fill:#f7bf4d;}.cls-8{fill:#04514d;}.cls-9{fill:#033d39;}.cls-10{fill:#0e7a72;}.cls-11{font-size:17.8px;fill:#fff;font-family:MarkerFelt-Wide, Marker Felt;}</style></defs><title>gaz</title><g id="Calque_2" data-name="Calque 2"><g id="Calque_1-2" data-name="Calque 1"><g id="Calque_3" data-name="Calque 3"><rect y="65.33" width="259.38" height="18.2"/><rect class="cls-1" x="48.13" width="158.02" height="158.02" rx="10.06"/><rect class="cls-2" x="60.94" y="12.82" width="132.39" height="132.39" rx="3.44"/><rect x="67.25" y="81.49" width="11.98" height="20.9" rx="1.73"/><rect x="102.94" y="81.49" width="11.98" height="20.9" rx="1.73"/><rect x="85.59" y="81.49" width="11.98" height="20.9" rx="1.73"/><rect x="121.27" y="81.49" width="11.98" height="20.9" rx="1.73"/><rect x="139.83" y="81.49" width="11.98" height="20.9" rx="1.73"/><rect x="158.17" y="81.49" width="11.98" height="20.9" rx="1.73"/><rect class="cls-3" x="175.04" y="81.49" width="11.98" height="20.9" rx="1.73"/><circle class="cls-4" cx="126.34" cy="47.44" r="19.96"/><path class="cls-5" d="M125.92,33.49c-1.52-.05-.78,2.21-.52,3,.46,1.47.66,2.4-.26,3.55C123,42.78,120.91,45.4,120,49c-.79,3-1.38,8.33,1.52,10.38,3.41,2.42,9.3.88,11.1-1.22,1.4-1.66-.59-5.91-1.8-7.7-1.38-2-3.75-3.25-3.4-6.25.11-1,.88-1.63,1.08-2.53a3.79,3.79,0,0,0-.52-2.51c-.77-1.52-2.31-2.9-1.86-4.81.09-.4.45-.59.51-1-.21,0-.23.09-.38.19Z"/><path class="cls-6" d="M125.45,33.81c-1.22.54.75,3.45.79,4.5.05,1.57-1.54,3.11-2.35,4.28-2,2.88-3.52,5.65-3.69,9.31-.14,2.83,1.7,9.78,6,8.37,2.2-.72.64-5.14-.28-6.93-1-2-2-3.65-1.67-6,.36-2.59,2.61-4.18,2.73-6.8a7.63,7.63,0,0,0-.84-3.45c-.31-.74-1.39-2.66-.64-3.24Z"/><path class="cls-6" d="M126,39.56a38,38,0,0,1-3,4.29,13.21,13.21,0,0,0-1.85,4.6,17.17,17.17,0,0,0-.27,5.23c.13,1.31,1.2,3.82,2.8,3.56,1.79-.3.69-2.93.23-4.08a10.32,10.32,0,0,1-.94-5.34,8.37,8.37,0,0,1,2.12-4.42c.69-.87,1.91-2.93.92-4Z"/><path class="cls-5" d="M126.22,33.7c-1.25.8.28,3.57.79,4.5.91,1.65.43,3.33,0,5s-.92,3.09.16,4.58,2.2,2.1,2.67,3.89a5.32,5.32,0,0,1-2.18,5.94c-1.91,1.48-3.93,2-5.94.38,2.31,2.49,6.85,2.74,9.13,1.16,2.68-1.86,1.1-7.45-1.16-9.6-1.08-1-2.44-2.09-2.64-3.73s1-2.49,1.4-3.87c.92-3.25-3.35-5.16-2.14-8.37Z"/><path class="cls-4" d="M125.91,39.87c-1.35,2.93-3.6,4.85-4.53,8.06-.17.62-1.26,4.81.28,4.58,1.11-.17.42-4.07.49-4.9.17-1.78,1.18-2.4,2.16-3.68a10.14,10.14,0,0,0,1.61-4,2.62,2.62,0,0,0,0,.28Z"/><path class="cls-5" d="M128.35,38.7c1.07.1.49,1.8.29,2.42a2.82,2.82,0,0,0,.1,2.79,21.65,21.65,0,0,1,3.43,7.42c.48,2.4,0,6.54-2.16,7.64-1.91,1-4.62-.9-5.83-2.72a4.48,4.48,0,0,1,.36-4.78c1-1.46,2.71-2.19,2.53-4.56-.06-.79-.58-1.36-.7-2.08a3,3,0,0,1,.43-1.91c.57-1.12,1.69-2.05,1.42-3.58-.06-.32-.31-.5-.34-.85.15,0,.16.09.26.19Z"/><path class="cls-6" d="M128.67,39c.84.54-.61,2.63-.66,3.44-.07,1.22,1,2.57,1.55,3.56a15.77,15.77,0,0,1,2.38,7.6c0,2.22-1.21,7-3.88,4.71-1.23-1-.9-2.81-.21-4.12.78-1.49,1.5-2.66,1.32-4.56s-1.74-3.5-1.76-5.55a6.17,6.17,0,0,1,.67-2.62c.24-.55,1-1.94.52-2.47Z"/><path class="cls-6" d="M128.15,43.43a35.49,35.49,0,0,0,2,3.63,11.91,11.91,0,0,1,1.19,3.75,15.27,15.27,0,0,1,.07,4.11c-.13,1-.94,2.87-2.06,2.51s-.41-2.34-.06-3.2a8.52,8.52,0,0,0,.79-4.08,7.58,7.58,0,0,0-1.39-3.64c-.46-.75-1.27-2.46-.55-3.24Z"/><path class="cls-4" d="M128.13,38.84c.86.73-.28,2.75-.66,3.43-.68,1.2-.38,2.56-.13,3.92s.58,2.49-.21,3.55-1.6,1.44-2,2.79a4.74,4.74,0,0,0,1.4,4.83c1.31,1.34,2.71,2,4.16.85-1.68,1.73-4.16.8-5.72-.64-1.85-1.7-1.32-5.21.32-6.68a4.49,4.49,0,0,0,1.94-2.67c.18-1.27-.64-2-.89-3.14-.57-2.62,2.47-3.72,1.7-6.33Z"/><path class="cls-7" d="M128.2,43.68c.88,2.41,2.42,4.11,3,6.7.11.5.78,3.87-.3,3.55-.78-.23-.19-3.21-.23-3.86-.08-1.41-.77-2-1.43-3.08a9,9,0,0,1-1-3.28c0,.07,0,.14,0,.21Z"/><path class="cls-5" d="M128.7,36.91a.89.89,0,0,0-.38,1c.21.45.71.24,1,.66.71,1,.12,2.55-.14,3.54a2.44,2.44,0,0,0,.65,2.66,24.85,24.85,0,0,1,1.82,2.83c1.69,2.46,2.62,5.09,1.94,8.06-.39,1.73-1.16,3.41-2.92,3.66a5.45,5.45,0,0,1-2.23.23,6.37,6.37,0,0,1-2.29-1.06c1.7,1.3,4.33,0,5.09-1.76s.55-4.64.14-6.53A15.85,15.85,0,0,0,129.13,45a5,5,0,0,1-1-2.28,7.21,7.21,0,0,1,.58-2.44c.11-.4.33-1-.12-1.31s-.81-.06-.86-.86a1.3,1.3,0,0,1,.74-1.31c.54-.14.86.07.93-.72l-.17,0a.58.58,0,0,1,.16.81c-.2.29-.85.17-.77.48Z"/><path class="cls-6" d="M129.49,39.74a20.68,20.68,0,0,1-.44,2.71,4.17,4.17,0,0,0,.66,2.51c.44.67,1.48,1.55,1.61,2.3,0,.23-.06.44,0,.68s.29.29.49.49c.39.41.15.69.28,1.18a13.33,13.33,0,0,1,1,3,11.22,11.22,0,0,1-.14,3.17A4.63,4.63,0,0,1,132,58a4.41,4.41,0,0,1-1.91,1,1.53,1.53,0,0,0-.59.28,4.62,4.62,0,0,0,3.79-2.2,9.52,9.52,0,0,0,.59-5.21,13.08,13.08,0,0,0-2.11-4.62c-.93-1.45-2.47-2.77-2.53-4.58,0-.88.82-2.52.08-3.19Z"/><path class="cls-5" d="M121.1,46s-.08,0-.07,0c-.91-2.28,1.7-4.51,3.06-5.72a3.06,3.06,0,0,0,1.17-3c-.23-1.18-1.71-2.19-1.17-3.54.35-.91,2.55-1.34,1.34-2.81a2.11,2.11,0,0,1,.87,1.4c.11.86-.29.75-.69,1.34-.73,1.07.16,2.35.38,3.53.51,2.81-2,3.77-3,6a5.29,5.29,0,0,0-.63,2.67c0,1,.79,1.48.9,2.34-.41-.32-.75-.79-1.14-1.15a9.86,9.86,0,0,1-1-1.27Z"/><path class="cls-8" d="M130.84,61.06c0,.39-.51.71-1.13.71h-7.25c-.63,0-1.14-.32-1.14-.71h0c0-.39.51-.7,1.14-.7h7.25c.62,0,1.13.31,1.13.7Z"/><rect class="cls-8" x="122.39" y="61.2" width="7.52" height="5.05"/><path class="cls-9" d="M129.66,60.59c.2.71-2,1.16-3.11,1.18.66.9-.13,2.42-.94,3.25a1.88,1.88,0,0,1-1.73.58,1.78,1.78,0,0,1-1.13-.51c0,.35,0,.7,0,1,1,.07,2.27,0,3.31,0,.59,0,1.15,0,1.73,0a11.34,11.34,0,0,0,1.65,0c.34-.16,0-.85-.06-1,0-.47-.1-.93-.14-1.4s-.5-1.42.13-1.87c.35-.25,1-.3,1.15-.63s-.48-.68-1.13-.74Z"/><path class="cls-10" d="M123,60.59c-1,.15.12.91.79,1-.63,1.32-.18,2.93.06,4.26a2.94,2.94,0,0,0-1,.16,29.75,29.75,0,0,1,.12-3.65c0-.2.09-.46-.12-.62s-.72-.16-1-.32c-.72-.37.11-.93,1-.84.13,0,0,0-.06,0Z"/><text class="cls-11" transform="translate(118.72 133.68)">M<tspan x="16.74" y="-6.11">3</tspan></text></g></g></g></svg>