<svg xmlns="http://www.w3.org/2000/svg" viewBox="0 0 259.38 158.02"><defs><style>.cls-1{isolation:isolate;}.cls-2{fill:#2451b5;}.cls-3{fill:#6d7d99;}.cls-4{fill:#ed0606;}.cls-5{fill:#ffd522;}.cls-6{fill:#04514d;}.cls-7{fill:#033d39;}.cls-8{fill:#0e7a72;}.cls-9{fill:#ff3000;}.cls-10{fill:#f4900c;}.cls-11{fill:#f7bf4d;}.cls-12,.cls-13,.cls-14,.cls-15,.cls-16{fill:#20deff;}.cls-13{opacity:0.51;}.cls-13,.cls-14,.cls-18{mix-blend-mode:multiply;}.cls-15{opacity:0.44;}.cls-16{opacity:0.67;}.cls-17,.cls-18{fill:#eb9ccf;}.cls-18{opacity:0.45;}.cls-19{font-size:15.38px;fill:#fff;font-family:MarkerFelt-Wide, Marker Felt;}.cls-20{letter-spacing:0.03em;}.cls-21{letter-spacing:0.03em;}.cls-22{letter-spacing:0em;}.cls-23{letter-spacing:0.04em;}.cls-24{letter-spacing:0.03em;}.cls-25{letter-spacing:0.04em;}</style></defs><title>OCR-compteurs-logo</title><g class="cls-1"><g id="Calque_2" data-name="Calque 2"><g id="Calque_1-2" data-name="Calque 1"><g id="Calque_2-2" data-name="Calque 2"><rect y="65.33" width="259.38" height="18.2"/><rect class="cls-2" x="48.13" width="158.02" height="158.02" rx="10.06"/><rect class="cls-3" x="60.94" y="12.82" width="132.39" height="132.39" rx="3.44"/><rect x="67.25" y="81.49" width="11.98" height="20.9" rx="1.73"/><rect x="102.94" y="81.49" width="11.98" height="20.9" rx="1.73"/><rect x="85.59" y="81.49" width="11.98" height="20.9" rx="1.73"/><rect x="121.27" y="81.49" width="11.98" height="20.9" rx="1.73"/><rect x="139.83" y="81.49" width="11.98" height="20.9" rx="1.73"/><rect x="158.17" y="81.49" width="11.98" height="20.9" rx="1.73"/><rect class="cls-4" x="175.04" y="81.49" width="11.98" height="20.9" rx="1.73"/><circle class="cls-5" cx="126.34" cy="47.44" r="19.96"/><path class="cls-6" d="M128.3,64c0,.18-.23.33-.53.33h-3.39c-.29,0-.53-.15-.53-.33h0c0-.18.24-.33.53-.33h3.39c.3,0,.53.15.53.33Z"/><rect class="cls-6" x="124.35" y="64.02" width="3.52" height="2.36"/><path class="cls-7" d="M127.75,63.73c.09.33-.93.54-1.46.55.32.42-.06,1.13-.43,1.52a.88.88,0,0,1-.81.27.77.77,0,0,1-.53-.24c0,.17,0,.33,0,.49.48,0,1.06,0,1.55,0,.28,0,.54,0,.81,0a4.86,4.86,0,0,0,.77,0c.16-.07,0-.39,0-.48s0-.44-.07-.66-.23-.66.06-.87.48-.14.54-.29-.23-.32-.53-.35Z"/><path class="cls-8" d="M124.64,63.73c-.48.07.06.42.37.46a3.38,3.38,0,0,0,0,2,1.29,1.29,0,0,0-.45.08,13.9,13.9,0,0,1,0-1.71c0-.1,0-.22,0-.29s-.34-.08-.48-.15c-.33-.18.06-.43.5-.39.06,0,0,0,0,0Z"/><path class="cls-9" d="M126,51.06c-.71,0-.36,1-.24,1.42.21.69.31,1.12-.12,1.66a11,11,0,0,0-2.42,4.16c-.38,1.39-.65,3.89.71,4.85a4.54,4.54,0,0,0,5.18-.57c.66-.78-.27-2.76-.84-3.6s-1.75-1.52-1.59-2.92c.06-.47.42-.77.51-1.19A1.8,1.8,0,0,0,127,53.7c-.36-.71-1.08-1.36-.88-2.25.05-.19.22-.28.24-.48-.09,0-.1,0-.17.09Z"/><path class="cls-10" d="M125.78,51.2c-.57.26.35,1.62.37,2.11,0,.73-.72,1.45-1.1,2a8.17,8.17,0,0,0-1.73,4.36c-.06,1.32.8,4.57,2.83,3.91,1-.34.3-2.4-.13-3.24a4.4,4.4,0,0,1-.78-2.83c.17-1.21,1.22-1.95,1.27-3.18a3.47,3.47,0,0,0-.39-1.61c-.14-.35-.64-1.24-.29-1.52Z"/><path class="cls-10" d="M126,53.89a18.05,18.05,0,0,1-1.41,2,6.13,6.13,0,0,0-.87,2.15,8.32,8.32,0,0,0-.13,2.45c.07.61.57,1.78,1.32,1.66s.32-1.37.1-1.91a4.89,4.89,0,0,1-.44-2.49,3.94,3.94,0,0,1,1-2.07c.33-.41.9-1.37.43-1.89Z"/><path class="cls-9" d="M126.14,51.16c-.58.37.13,1.66.37,2.1a3.08,3.08,0,0,1,0,2.35c-.18.73-.44,1.44.07,2.14s1,1,1.25,1.82a2.47,2.47,0,0,1-1,2.77,2,2,0,0,1-2.78.18,3.61,3.61,0,0,0,4.27.54c1.26-.87.52-3.48-.54-4.48a3.18,3.18,0,0,1-1.24-1.75c-.09-.77.48-1.16.66-1.81.43-1.52-1.57-2.41-1-3.91Z"/><path class="cls-5" d="M126,54c-.63,1.37-1.69,2.27-2.12,3.77-.08.29-.59,2.25.13,2.14.52-.08.19-1.9.23-2.29.08-.83.55-1.12,1-1.72a4.65,4.65,0,0,0,.75-1.88.57.57,0,0,0,0,.13Z"/><path class="cls-9" d="M127.14,53.49c.5,0,.23.84.13,1.13a1.35,1.35,0,0,0,0,1.31,10.12,10.12,0,0,1,1.6,3.47c.23,1.12,0,3.06-1,3.57s-2.17-.42-2.73-1.27a2.09,2.09,0,0,1,.16-2.24c.48-.68,1.27-1,1.19-2.13,0-.37-.27-.63-.33-1a1.4,1.4,0,0,1,.2-.9c.27-.52.79-1,.67-1.67,0-.15-.15-.23-.16-.4.07,0,.07,0,.12.09Z"/><path class="cls-10" d="M127.29,53.63c.39.25-.29,1.23-.31,1.61,0,.57.47,1.2.72,1.66a7.21,7.21,0,0,1,1.11,3.56c0,1-.56,3.26-1.81,2.2a1.56,1.56,0,0,1-.1-1.93,3.47,3.47,0,0,0,.62-2.13c-.09-1-.81-1.64-.82-2.6a2.86,2.86,0,0,1,.31-1.22c.11-.26.49-.91.25-1.16Z"/><path class="cls-10" d="M127,55.7a16.48,16.48,0,0,0,.95,1.7,5.32,5.32,0,0,1,.55,1.76,6.84,6.84,0,0,1,0,1.92c-.06.47-.44,1.34-1,1.17s-.2-1.09,0-1.5a4.07,4.07,0,0,0,.37-1.9,3.6,3.6,0,0,0-.65-1.7c-.22-.35-.6-1.16-.26-1.52Z"/><path class="cls-5" d="M127,53.56c.41.34-.13,1.29-.31,1.6a2.67,2.67,0,0,0,0,1.83,2,2,0,0,1-.1,1.67c-.35.46-.75.67-.93,1.3a2.23,2.23,0,0,0,.65,2.26c.62.62,1.27.92,2,.4-.78.81-1.94.37-2.67-.3a2.29,2.29,0,0,1,.15-3.12,2.21,2.21,0,0,0,.91-1.25c.08-.6-.31-1-.42-1.47-.27-1.23,1.15-1.74.79-3Z"/><path class="cls-11" d="M127.07,55.82a24,24,0,0,1,1.4,3.14c.05.23.36,1.8-.14,1.65s-.09-1.5-.11-1.8a2.79,2.79,0,0,0-.67-1.44,4.19,4.19,0,0,1-.48-1.54.41.41,0,0,0,0,.11Z"/><path class="cls-9" d="M127.3,52.65c-.12.1-.26.29-.18.47s.33.12.47.31c.33.48,0,1.19-.07,1.66a1.12,1.12,0,0,0,.31,1.24,12.59,12.59,0,0,1,.85,1.33,4.63,4.63,0,0,1,.91,3.76c-.19.81-.55,1.6-1.37,1.72a2.5,2.5,0,0,1-1,.1,2.92,2.92,0,0,1-1.06-.49,1.7,1.7,0,0,0,2.37-.83,5.63,5.63,0,0,0,.07-3.05,7.46,7.46,0,0,0-1.05-2.44,2.32,2.32,0,0,1-.46-1.07,3.22,3.22,0,0,1,.27-1.14c0-.19.15-.45-.06-.61s-.38,0-.4-.4a.58.58,0,0,1,.35-.61c.25-.07.4,0,.43-.34l-.08,0a.27.27,0,0,1,.07.38c-.09.14-.39.08-.35.23Z"/><path class="cls-10" d="M127.67,54a8,8,0,0,1-.21,1.27,2,2,0,0,0,.31,1.17c.21.31.69.72.76,1.07,0,.11,0,.21,0,.32s.14.14.23.23.07.32.13.56a6.44,6.44,0,0,1,.48,1.38,5.72,5.72,0,0,1-.07,1.49,2.17,2.17,0,0,1-.46,1.06,2,2,0,0,1-.9.49.79.79,0,0,0-.28.13,2.18,2.18,0,0,0,1.78-1,4.45,4.45,0,0,0,.27-2.44,6,6,0,0,0-1-2.16c-.44-.68-1.16-1.29-1.18-2.14,0-.41.38-1.18,0-1.49Z"/><path class="cls-9" d="M123.75,56.9s0,0,0,0c-.42-1.07.8-2.11,1.44-2.68a1.43,1.43,0,0,0,.54-1.4c-.1-.55-.79-1-.55-1.65.17-.43,1.2-.63.63-1.31a1,1,0,0,1,.41.65c0,.4-.14.35-.32.62-.35.5.07,1.1.17,1.65.25,1.32-.94,1.77-1.41,2.79a2.45,2.45,0,0,0-.29,1.25c0,.46.37.69.42,1.1-.19-.15-.35-.37-.54-.54a5.39,5.39,0,0,1-.47-.6Z"/><path class="cls-12" d="M140.83,46.22a5.29,5.29,0,1,1-10.25,0c.66-3.32,4.33-11.84,5.21-12.28C136.11,33.78,140.07,42.74,140.83,46.22Z"/><path class="cls-13" d="M135.83,34.14a6.65,6.65,0,0,0,.44,1.44c.23.69.37,1.4.53,2.1a42.25,42.25,0,0,1,1,4.43c.19,1.53.27,3.57-.52,5a2.34,2.34,0,0,1-2.64,1.24c-1.42-.57-1.94-2.23-2.23-3.61a6.79,6.79,0,0,1,.15-3.55,12.2,12.2,0,0,0-1,2.4,12.51,12.51,0,0,0-.65,2.11,6,6,0,0,0,.36,4.12,6.18,6.18,0,0,0,3.12,2.59,4.5,4.5,0,0,0,2.07.29c.69-.17,7.11-1.31,2.52-11.59-.61-1.38-1-2.65-1.59-4-.25-.55-.57-1.07-.78-1.64a3.51,3.51,0,0,0-.83-1.6Z"/><path class="cls-13" d="M135.71,34.22a6.31,6.31,0,0,0,.23,1.53c.17.93.36,1.85.51,2.79a9.8,9.8,0,0,1-.21,4.72c-.38,1-1.43,1.64-2.08.5a5.83,5.83,0,0,1-.33-3.78,14.12,14.12,0,0,1,1-3.43c.3-.71.72-1.4,1-2.12a1.69,1.69,0,0,1-.12-.28,43.47,43.47,0,0,0-2.63,5.24A37.27,37.27,0,0,0,131,44.93a6.41,6.41,0,0,0,.32,4.52,4.87,4.87,0,0,0,3.56,2.85A5.19,5.19,0,0,0,139.24,51c1.57-1.42,1.7-3.35,1.27-5.28a34.65,34.65,0,0,0-1.2-3.83c-.34-1-1.15-2.7-1.56-3.72a36.81,36.81,0,0,0-1.75-4c-.06-.12-.15-.17-.17-.31Z"/><path class="cls-14" d="M138.11,39.54c.13.77.46,1.53.63,2.31a11.61,11.61,0,0,1,.37,3,6.56,6.56,0,0,1-1.23,3.85c-1.47,1.71-4.44,2-5.43-.33a11.4,11.4,0,0,1-.5-4,5.19,5.19,0,0,0-.67,3.24,5,5,0,0,0,1.16,3,4.61,4.61,0,0,0,2.15,1.53,4.55,4.55,0,0,0,2.61-.1,4.3,4.3,0,0,0,3.07-4.4,11.63,11.63,0,0,0-.21-3.06,23.76,23.76,0,0,0-.84-2.76A10.64,10.64,0,0,0,138,39.3Z"/><path class="cls-12" d="M135.43,35.3a9.36,9.36,0,0,0-.47,1.61c-.28.94-.56,1.87-.78,2.83-.1.44-.44,1.5,0,1.88s.67-.41.77-.76a18.92,18.92,0,0,0,.55-3.49c.08-.75,0-1.54,0-2.27Z"/><path class="cls-12" d="M137.59,38.34c0-.06-.08-.11-.11-.16a7.58,7.58,0,0,1,.75,2.08c.26.93.49,1.86.67,2.81a10.88,10.88,0,0,1,.21,4.21,4.42,4.42,0,0,1-1,2.18c-.33.38-1.08,1.62-.21,1.87s1.6-.95,1.83-1.53a6.75,6.75,0,0,0,.41-2.68,15.73,15.73,0,0,0-1-4.94c-.27-.73-.49-1.43-.73-2.16-.11-.34-.25-.67-.39-1s-.47-.78-.53-1Z"/><path class="cls-15" d="M135.27,35.14c-.22,0-.84,1.57-1,1.84a23.83,23.83,0,0,0-1.45,3,30.38,30.38,0,0,0-1.57,4.75c-.41,1.92-.81,4.59.64,6.2a1.64,1.64,0,0,0,1.34.56c.6-.07.42-.57.3-1a28.74,28.74,0,0,1-1.23-3.67,15.74,15.74,0,0,1,1.07-7.07c.32-1,.71-1.88,1.1-2.8a6.27,6.27,0,0,1,.9-1.77Z"/><path class="cls-16" d="M135.07,36.1a6.69,6.69,0,0,0-.46,1.76c-.06.23-.39,1.75.16,1.24.34-.32.4-1.34.42-1.77s-.07-.91,0-1.35Z"/><path class="cls-16" d="M137.79,38.78a4.59,4.59,0,0,0,.47,1.44c.19.54.36,1.1.54,1.65a14.43,14.43,0,0,1,.71,2.71,9.9,9.9,0,0,1,0,2.55,4.13,4.13,0,0,0-.16,1.2c.1.49.46.27.55-.12a9.89,9.89,0,0,0-.42-4.36,37.66,37.66,0,0,0-1.21-3.63,14.27,14.27,0,0,0-.64-1.76Z"/><path class="cls-16" d="M134.28,40.22a2.54,2.54,0,0,0-.25,1.39c0,.41.16,1.2.6.62a2.43,2.43,0,0,0,.32-1.58c-.06-.31-.61-.83-.63-.27Z"/><path class="cls-17" d="M115.46,35.32c-.16.13-4.48,8.49-4.48,8.49l5.33,1.69-5.17,8.92,10.13-9.93-5.51-2.37L119,35.76Z"/><path class="cls-17" d="M115.17,35.34c-.16.13-4.48,8.49-4.48,8.49L116,45.51l-5,8.89L121,44.5l-5.51-2.36,3.26-6.37Z"/><path class="cls-17" d="M117.56,35.87a22.74,22.74,0,0,1-3.51,4.93c-.2.19-1.48,1.35-1.68,1-.1-.18.24-.79.31-1,.18-.42.36-.84.56-1.24.66-1.32,1.31-2.68,2-3.94a17.7,17.7,0,0,1,2.31.23Z"/><path class="cls-17" d="M116.2,35.75a7.87,7.87,0,0,0-.76,1.34c-.36.66-.78,1.28-1.15,1.93-.27.5-.57,1-.88,1.43a2.69,2.69,0,0,1-.71.85l0,0c.44-1.15,1-2.25,1.52-3.36a11,11,0,0,1,1.23-2.27,8,8,0,0,0,.86.12Z"/><path class="cls-17" d="M116.25,45.47c-.55,1-1.09,2-1.6,3-.22.44-.46.86-.68,1.29a4.14,4.14,0,0,0-.65,1.52c.31.07.71-.54.9-.75.37-.38.75-.78,1.09-1.19.58-.7,1.21-1.33,1.79-2a9.1,9.1,0,0,0,1.26-1.44c.39-.73-.43-.48-.86-.43a7.56,7.56,0,0,1-1.19.08Z"/><path class="cls-17" d="M116.27,45.6c-.06-.1-.19.3-.25.44s-.24.52-.36.79c-.22.46-.47.9-.69,1.36-.36.75-.72,1.53-1,2.28.33,0,.84-1,1-1.31.29-.45.6-.91.92-1.35s.62-.8.92-1.19a4.37,4.37,0,0,0,.71-1.06c-.38-.09-.91.12-1.23,0Z"/><path class="cls-17" d="M111,43.78a6.06,6.06,0,0,0,1.86.6l1.75.5a18.26,18.26,0,0,0,3,.7c.44.05,1.26.22,1.68,0,.79-.49-1-1-1.23-1.14a31.84,31.84,0,0,1-4.54-2c-.56-.33-1.07-.87-1.58-.14-.18.27-.26.58-.43.87s-.4.54-.5.72Z"/><path class="cls-17" d="M111.17,43.8a6.22,6.22,0,0,0,1.61.4l1.9.45c.51.11,1,.24,1.54.38.33.09,1.1.41,1.41.28a4.3,4.3,0,0,0-1-.49l-1.3-.58c-.69-.31-1.39-.62-2.06-1-.23-.12-.46-.23-.68-.36s-.45-.42-.62-.4-.58.89-.74,1.15a1.25,1.25,0,0,0-.08.12Z"/><path class="cls-18" d="M118.62,35.86c-.22.08-.38.45-.52.65-.33.47-.68.93-1,1.4a16.57,16.57,0,0,1-1.91,2.18,7.25,7.25,0,0,1-2.3,1.69,4.86,4.86,0,0,1,1.31.17c.24,0,1.14.38,1.34.23s.16-.55.22-.68.21-.48.32-.71a16.22,16.22,0,0,1,.82-1.47c.34-.59.69-1.21,1-1.83a5.3,5.3,0,0,0,.72-1.64Z"/><path class="cls-18" d="M118.67,35.88a12.14,12.14,0,0,0-1.08,1.79c-.48.68-1,1.37-1.41,2.06a16,16,0,0,1-1.85,2c.08.18.48.21.67.24s.36,0,.52-.3c.3-.5.59-1.06.86-1.59.55-1.06,1.32-2,1.86-3.07.18-.35.58-.82.57-1.24,0,0,0,0-.06,0Z"/><text class="cls-19" transform="translate(71.18 132.49)"><tspan class="cls-20">O</tspan><tspan class="cls-21" x="10.14" y="0">C</tspan><tspan class="cls-22" x="18.96" y="0">R CO</tspan><tspan class="cls-23" x="50.03" y="0">M</tspan><tspan x="65.18" y="0">P</tspan><tspan class="cls-24" x="73.18" y="0">T</tspan><tspan x="82.45" y="0">E</tspan><tspan class="cls-25" x="89.83" y="0">U</tspan><tspan x="99.22" y="0">RS</tspan></text></g></g></g></g></svg>