<svg xmlns="http://www.w3.org/2000/svg" viewBox="0 0 259.38 158.02"><defs><style>.cls-1{isolation:isolate;}.cls-2{fill:#2451b5;}.cls-3{fill:#6d7d99;}.cls-4{fill:#ed0606;}.cls-5{fill:#ffd522;}.cls-10,.cls-6,.cls-7,.cls-8,.cls-9{fill:#20deff;}.cls-7{opacity:0.51;}.cls-7,.cls-8{mix-blend-mode:multiply;}.cls-9{opacity:0.44;}.cls-10{opacity:0.67;}.cls-11{font-size:17.8px;fill:#fff;font-family:MarkerFelt-Wide, Marker Felt;}</style></defs><title>water</title><g class="cls-1"><g id="Calque_2" data-name="Calque 2"><g id="Calque_1-2" data-name="Calque 1"><g id="Calque_4" data-name="Calque 4"><rect y="65.33" width="259.38" height="18.2"/><rect class="cls-2" x="48.13" width="158.02" height="158.02" rx="10.06"/><rect class="cls-3" x="60.94" y="12.82" width="132.39" height="132.39" rx="3.44"/><rect x="67.25" y="81.49" width="11.98" height="20.9" rx="1.73"/><rect x="102.94" y="81.49" width="11.98" height="20.9" rx="1.73"/><rect x="85.59" y="81.49" width="11.98" height="20.9" rx="1.73"/><rect x="121.27" y="81.49" width="11.98" height="20.9" rx="1.73"/><rect x="139.83" y="81.49" width="11.98" height="20.9" rx="1.73"/><rect x="158.17" y="81.49" width="11.98" height="20.9" rx="1.73"/><rect class="cls-4" x="175.04" y="81.49" width="11.98" height="20.9" rx="1.73"/><circle class="cls-5" cx="127.6" cy="36.25" r="20.26"/><path class="cls-6" d="M137.05,40.65c1.42,6.52-4.2,12.08-9.37,12.08S117,47.19,118.31,40.65c1.2-6.08,7.92-21.64,9.53-22.44C128.43,17.91,135.66,34.28,137.05,40.65Z"/><path class="cls-7" d="M127.92,18.57a11.73,11.73,0,0,0,.8,2.63c.41,1.26.67,2.56,1,3.84.62,2.7,1.46,5.34,1.81,8.09s.49,6.53-.95,9.06c-.88,1.54-3,3-4.83,2.27-2.61-1.06-3.54-4.08-4.09-6.6a12.53,12.53,0,0,1,.28-6.49A22.3,22.3,0,0,0,120,35.75a25.76,25.76,0,0,0-1.19,3.87c-.52,2.42-.6,5.34.66,7.52a11.35,11.35,0,0,0,5.72,4.73,8.11,8.11,0,0,0,3.78.53c1.25-.3,13-2.39,4.61-21.19-1.13-2.52-1.77-4.83-2.91-7.31-.46-1-1-2-1.42-3A6.71,6.71,0,0,0,127.77,18Z"/><path class="cls-7" d="M127.7,18.72a10.39,10.39,0,0,0,.42,2.79c.31,1.69.65,3.39.91,5.09.42,2.68.63,6-.36,8.63-.7,1.83-2.62,3-3.81.93s-1-4.68-.62-6.92A27.43,27.43,0,0,1,126.11,23c.56-1.29,1.32-2.56,1.8-3.87-.09-.19-.16-.33-.23-.51a83.09,83.09,0,0,0-4.81,9.57,69.39,69.39,0,0,0-3.74,10.14,11.71,11.71,0,0,0,.58,8.26c1.27,2.5,3.58,4.9,6.51,5.2a9.42,9.42,0,0,0,7.92-2.43c2.88-2.59,3.11-6.12,2.33-9.64a67.11,67.11,0,0,0-2.2-7c-.62-1.9-2.1-4.93-2.85-6.79a70.53,70.53,0,0,0-3.19-7.33c-.13-.23-.28-.3-.31-.56Z"/><path class="cls-8" d="M132.08,28.44c.23,1.41.85,2.8,1.15,4.21a21.73,21.73,0,0,1,.68,5.49c-.11,2.36-.68,5.18-2.26,7-2.69,3.13-8.11,3.6-9.93-.6-1-2.41-.74-4.84-.91-7.36-1.13,1.46-1.36,4.13-1.23,5.93a9.33,9.33,0,0,0,2.12,5.54,8.62,8.62,0,0,0,3.93,2.79,8.4,8.4,0,0,0,4.79-.18c3.76-1.15,5.61-4.29,5.61-8a21.79,21.79,0,0,0-.38-5.59,51.81,51.81,0,0,0-1.54-5.06,20.69,20.69,0,0,0-2.32-4.6Z"/><path class="cls-6" d="M127.19,20.69a16.93,16.93,0,0,0-.88,2.94c-.51,1.72-1,3.42-1.41,5.17-.18.8-.81,2.74-.06,3.44s1.23-.75,1.41-1.39a35.6,35.6,0,0,0,1-6.38c.13-1.37-.07-2.81.07-4.15Z"/><path class="cls-6" d="M131.13,26.24c-.06-.1-.15-.19-.21-.28a13.72,13.72,0,0,1,1.38,3.79c.47,1.7.9,3.4,1.22,5.13a20.27,20.27,0,0,1,.39,7.71,8.18,8.18,0,0,1-1.88,4c-.6.71-2,3-.39,3.42,1.4.4,2.92-1.74,3.34-2.79a12.35,12.35,0,0,0,.76-4.9,29.72,29.72,0,0,0-1.81-9c-.5-1.33-.9-2.62-1.34-3.95-.2-.62-.46-1.22-.71-1.84s-.86-1.42-1-1.81Z"/><path class="cls-9" d="M126.89,20.4c-.41,0-1.53,2.87-1.81,3.36a44.31,44.31,0,0,0-2.64,5.41,55.27,55.27,0,0,0-2.87,8.69c-.75,3.5-1.47,8.39,1.18,11.33a3,3,0,0,0,2.43,1c1.11-.12.78-1,.55-1.9-.62-2.3-1.91-4.29-2.24-6.71-.59-4.29.55-8.87,2-12.93.6-1.73,1.3-3.43,2-5.11a11.64,11.64,0,0,1,1.66-3.24Z"/><path class="cls-10" d="M126.53,22.15c-.36.23-.71,2.55-.86,3.22-.09.41-.7,3.2.29,2.26.63-.58.75-2.45.79-3.23s-.13-1.67-.08-2.47Z"/><path class="cls-10" d="M131.5,27.05a8.1,8.1,0,0,0,.85,2.63c.35,1,.65,2,1,3a27.36,27.36,0,0,1,1.3,5,18.17,18.17,0,0,1,.07,4.66,7.5,7.5,0,0,0-.29,2.19c.19.9.84.49,1-.22.6-2.57-.2-5.54-.78-8a68.07,68.07,0,0,0-2.2-6.65,31.82,31.82,0,0,0-1.17-3.22Z"/><path class="cls-10" d="M125.07,29.68a4.81,4.81,0,0,0-.46,2.54c0,.75.3,2.19,1.11,1.13a4.4,4.4,0,0,0,.57-2.89c-.11-.56-1.1-1.5-1.15-.49Z"/><text class="cls-11" transform="translate(114.92 130.73)">M<tspan x="16.74" y="-6.11">3</tspan></text></g></g></g></g></svg>